<svg xmlns="http://www.w3.org/2000/svg" width="256" height="256"><path fill="#212121" fill-opacity=".016" fill-rule="evenodd" d="M0 128.004v128.004l128.25-.254 128.25-.254.254-127.75L257.008 0H0v128.004m.485.496c0 70.4.119 99.053.265 63.672.146-35.38.146-92.98 0-128C.604 29.153.485 58.1.485 128.5"/><path fill="#212121" fill-opacity=".362" fill-rule="evenodd" d="M48.6 29.25C32.839 38.8 28.557 42.023 26.599 45.809c-.783 1.514-2.151 10.306-3.066 19.712-.908 9.339-2.256 21.371-2.995 26.739l-1.343 9.76-5.031 4.522c-5.803 5.218-7.663 9.645-6.713 15.98.465 3.102.195 5.262-.931 7.44C4.771 133.344 1.479 167.34.368 193.5c-.996 23.468 1.948 31.635 13.375 37.103 6.899 3.301 20.389 4.46 27.79 2.388 4.65-1.302 12.937-7.746 13.912-10.819.307-.966 2.967-2.938 5.91-4.382 10.17-4.988 24.295-20.809 29.575-33.126l1.938-4.522 9.834 3.305c11.932 4.011 19.966 5.878 23.264 5.406 3.41-.488 7.351-6.491 6.631-10.103l-.547-2.75H256v-63c0-62.333-.021-63-2-63-1.333 0-2-.667-2-2 0-1.111-.667-2-1.5-2-.933 0-1.5-.944-1.5-2.5V41h-33v2.5c0 2-.5 2.5-2.5 2.5-1.833 0-2.5.533-2.5 2 0 1.333-.667 2-2 2-1.778 0-2-.667-2-6v-6h-47.436l-14.225 6-14.224 6H106v-2.5c0-2-.5-2.5-2.5-2.5-1.833 0-2.5-.533-2.5-2 0-1.619-.667-2-3.5-2-2.444 0-3.5-.452-3.5-1.5 0-.968-.975-1.502-2.75-1.506l-2.75-.006 2.977-1.553c3.997-2.084 4.49-3.074 4.508-9.049L96 22.272l-4.64-.636C88.809 21.286 81.207 21 74.469 21H62.216L48.6 29.25m6.815.561C38.333 40.193 32.147 44.482 30.709 46.939c-.89 1.52-1.981 7.845-2.686 15.561-.653 7.15-2.03 19.428-3.062 27.284l-1.874 14.284-5.544 5.066C12.132 114.08 12 114.329 12 119.586v5.385L17 123c2.75-1.084 5-1.757 5-1.496 0 .262-2.413 2.078-5.362 4.036-2.95 1.958-5.879 4.693-6.51 6.078-1.641 3.602-6.39 63.19-5.852 73.428.762 14.495 4.47 20.023 15.656 23.342 13.39 3.974 27.233.512 31.486-7.873 2.724-5.368 3.012-25.32.434-30.017-3.53-6.433-5.195-7.116-14.852-6.092l-5.5.584 5.351-1.538C42.315 181.881 47 179.371 47 178.014c0-.416-2.362-1.146-5.25-1.622l-5.25-.865 7.819-.307c8.572-.336 9.859-1.79 3.228-3.646-3.039-.851-.233-1.021 13.506-.821l17.342.253 19.552 6.408c10.754 3.524 21.578 6.678 24.053 7.008l4.5.601-5-2.349c-7.102-3.336-8.368-5.097-6.28-8.735l1.638-2.853-5.179-3.693c-2.848-2.031-7.654-5.809-10.679-8.396-9.712-8.304-13.165-9.333-38.5-11.469-17.436-1.471-27.5-3.476-27.5-5.481 0-1.447 8.767-3.265 26.186-5.43 15.838-1.968 17.362-2.332 18.393-4.399 1.915-3.842 2.715-3.876 2.031-.087-.63 3.489-.469 3.751 4.129 6.702 4.954 3.179 12.218 6.543 12.822 5.939.19-.19.826-1.454 1.414-2.809.878-2.025.973-1.56.534 2.62-.471 4.492-.191 5.556 2.41 9.147 2.963 4.089 8.116 8.459 11.294 9.577 1.877.66 1.979.297 3.718-13.235.948-7.381.935-7.455-2.12-11.5-3.75-4.967-9.22-10.106-22.311-20.962-14.858-12.321-14.26-12.031-22.04-10.676-3.614.629-12.022 2.713-18.686 4.631-6.664 1.918-12.595 3.328-13.179 3.133C38.394 114.298 69.15 104 71.546 104c.851 0 2.314-1.347 3.251-2.994 2.077-3.651 3.089-3.86 2.448-.506-.334 1.748-.037 2.5.99 2.5 2.306 0 21.062 11.111 23.077 13.671.996 1.266 5.109 4.996 9.14 8.29l7.329 5.988.59-4.224c.325-2.324.672-7.02.772-10.436.158-5.371-.205-6.771-2.677-10.337-1.572-2.27-4.683-5.367-6.912-6.883-5.993-4.076-25.5-15.508-32.438-19.01-7.21-3.64-4.587-4.473-30.498 9.69-10.384 5.677-19.05 10.152-19.257 9.945-.207-.206 4.793-3.818 11.11-8.025 12.919-8.605 13.158-8.989 12.172-19.603-1.056-11.357-1.562-12.842-4.756-13.956-4.088-1.425-3.579-2.244.943-1.521 3.67.587 4.041.377 8.845-5.013 7.059-7.921 8.096-10.067 5.989-12.395-2.438-2.693-2.03-3.467.836-1.589 3.185 2.087 9.832 1.318 21-2.428 6.527-2.19 8.059-3.097 8.32-4.924.303-2.126-.017-2.24-6.282-2.24-4.945 0-6.745-.376-7.176-1.5-.439-1.142-2.302-1.5-7.804-1.5-6.872 0-7.617.237-15.143 4.811m27.854-4.118c.973.254 2.323.237 3-.037.677-.274-.119-.481-1.769-.461-1.65.02-2.204.244-1.231.498M66.5 44c-.351.567.49 1 1.941 1C69.848 45 71 44.55 71 44s-.873-1-1.941-1-2.219.45-2.559 1M219 45c0 .617 5.167 1 13.5 1s13.5-.383 13.5-1-5.167-1-13.5-1-13.5.383-13.5 1M63.638 48.5c-.316.825-.139 1.5.393 1.5.533 0 .969-.675.969-1.5s-.177-1.5-.393-1.5c-.216 0-.652.675-.969 1.5M214 50c0 .629 6.5 1 17.5 1s17.5-.371 17.5-1-6.5-1-17.5-1-17.5.371-17.5 1M56.668 56.716c-2.828 3.242-2.83 3.256-2.121 13.265.391 5.51.99 10.005 1.332 9.987.341-.017 1.423-.64 2.403-1.383 1.563-1.186 1.747-2.807 1.5-13.233L59.5 53.471l-2.832 3.245M64 65.026v11.025l3.108-1.607c3.873-2.003 6.17-1.455 15.097 3.604L89.179 82h24.911c13.7 0 24.91.273 24.91.606 0 .333-1.093 1.466-2.428 2.516-4.015 3.159-10.424 13.658-12.563 20.583-3.663 11.859-2.113 26.127 3.999 36.809 3.474 6.072 12.966 15.412 18.567 18.269 7.971 4.067 15.182 5.502 25.048 4.986 7.935-.415 10.278-.979 16.56-3.987 12.365-5.922 20.531-14.824 24.692-26.918 5.69-16.539 2.265-33.706-9.288-46.556-2.523-2.806-4.587-5.373-4.587-5.705 0-.332 1.8-.603 4-.603h4V54H64v11.026M216 68v14h37V54h-37v14m-78-5v7h61V56h-61v7m22.27 13.054c-15.288 3.017-28.884 15.282-33.391 30.119-1.682 5.537-2.03 8.785-1.694 15.808.367 7.689.899 9.805 4.087 16.254 4.548 9.202 12.127 16.638 21.469 21.064 6.388 3.025 7.392 3.201 18.28 3.201 11.105 0 11.773-.124 18.5-3.435 17.565-8.647 27.809-27.851 24.658-46.227-2.432-14.181-10.639-25.688-22.904-32.113-9.717-5.091-19.168-6.612-29.005-4.671m.476 7.97c-10.411 2.624-19.73 10.17-24.465 19.812-2.482 5.054-2.78 6.74-2.771 15.664.009 8.898.317 10.627 2.794 15.69 3.624 7.406 11.891 14.986 19.449 17.834 7.847 2.957 21.535 2.486 28.247-.972 10.661-5.492 16.736-12.958 19.581-24.064 5.616-21.921-9.994-42.963-33.015-44.504-3.336-.223-7.755.02-9.82.54m-2.741 2.584c-16.574 6.02-26.366 22.643-22.985 39.023 1.608 7.789 4.179 12.621 9.602 18.044 6.756 6.755 14.057 9.748 23.878 9.787 10.243.04 18.258-3.358 25.055-10.624 6.956-7.437 8.912-12.549 8.93-23.338.013-7.626-.381-9.839-2.579-14.5-3.268-6.928-9.483-13.157-16.604-16.641-7.034-3.441-18.464-4.233-25.297-1.751m6.373 22.829c-6.039 2.628-8.121 9.292-4.868 15.583 1.913 3.698 4.319 4.98 9.348 4.98 11.416 0 14.964-15.535 4.664-20.423-3.988-1.892-5.08-1.909-9.144-.14M19.736 138.775c-2.282.488-4.736 5.271-4.736 9.234 0 3.746 1.512 3.18 2.322-.868.969-4.845 3.019-6.111 8.95-5.527 4.35.429 4.906.313 3.312-.692-2.418-1.523-7.539-2.64-9.848-2.147m-1.557 21.475c-2.587 4.236-5.18 10.565-5.174 12.622.003.895 1.882-1.522 4.176-5.372 2.293-3.85 4.653-7.331 5.244-7.735.591-.404 3.212-.741 5.825-.75 2.613-.008 4.75-.465 4.75-1.015 0-.563-2.806-1-6.418-1-6.168 0-6.496.127-8.403 3.25M124 171.004c2.43 1.906 4.259 1.954 65.486 1.728 59.086-.218 63.008-.34 63.324-1.982.318-1.653-3.329-1.749-65.487-1.728-65.561.022-65.813.03-63.323 1.982m-6.943 2.889c-1.203 2.249-.491 2.667 1.935 1.133 1.123-.71 1.208-1.226.342-2.092-.865-.865-1.427-.628-2.277.959m-61.575 2.761c-2.19 1.46-4.174 2.815-4.409 3.011-.235.196.73 1.589 2.144 3.095 2.704 2.881 9.232 15.125 8.47 15.886-.244.245-1.598-1.524-3.008-3.931-4.666-7.962-5.635-7.682-3.552 1.025 1.022 4.268 1.861 10.348 1.865 13.51.004 3.162.37 5.75.812 5.75 1.951 0 10.122-6.151 14.744-11.097C79.532 196.426 88 183.464 88 180.248c0-.457-2.485-2.05-5.522-3.54C77.754 174.391 75.692 174 68.21 174c-7.797 0-9.178.288-12.728 2.654m63.018-.152-3 1.34 5.864 2.705c4.793 2.21 6.022 2.452 6.734 1.328.479-.756.878-1.676.887-2.043.015-.655-6.349-4.911-7.103-4.751-.21.045-1.732.684-3.382 1.421"/><path fill="#212121" fill-opacity=".613" fill-rule="evenodd" d="M54.958 25.855c-14.785 8.487-25.515 15.819-27.431 18.744-1.349 2.059-2.217 6.547-3.166 16.369-.72 7.442-2.041 19.607-2.937 27.032l-1.629 13.5-5.897 5.683L8 112.866v7.616c0 4.631-.558 8.696-1.423 10.368-.948 1.834-2.326 14.069-4.135 36.701-2.968 37.143-2.727 45.098 1.639 54.116 7.473 15.438 42.611 16.433 50.371 1.425.885-1.711 3.684-3.932 7.181-5.698 10.168-5.135 25.852-23.242 29.373-33.913.632-1.915 1.391-3.481 1.687-3.481.296 0 5.998 1.739 12.672 3.864s14.195 4.166 16.713 4.535c4.118.604 4.856.395 7.334-2.084 2.237-2.236 2.688-3.468 2.396-6.535l-.361-3.78H256v-62.5c0-61.833-.021-62.5-2-62.5-1.467 0-2-.667-2-2.5s-.533-2.5-2-2.5-2-.667-2-2.5V41h-31v2.5c0 2.111-.467 2.5-3 2.5s-3 .389-3 2.5c0 1.833-.533 2.5-2 2.5-1.778 0-2-.667-2-6v-6H158.121l-14.203 6-14.203 6H106v-5.621l-14.431.435C76.862 46.256 66 45.505 66 44.045c0-.447 1.125-1.027 2.5-1.29 1.676-.32 2.5-.029 2.5.884C71 44.727 74.012 45 86 45c14.333 0 15-.089 15-2 0-1.619-.667-2-3.5-2-1.925 0-3.5-.423-3.5-.94 0-.516-1.687-1.085-3.75-1.264l-3.75-.324 3.67-1.651C94.653 34.803 96 32.47 96 26.718v-4.414l-10.656-.652c-20.582-1.259-20.961-1.207-30.386 4.203m-2.458 5.36c-18.652 11.456-20.346 12.621-21.971 15.1-.969 1.48-2.074 7.914-3.046 17.753-.84 8.488-2.217 20.832-3.061 27.432l-1.535 12-5.944 5.535c-5.79 5.392-5.943 5.668-5.943 10.75 0 5.687.355 5.929 5.532 3.766 1.907-.797 3.468-1.289 3.468-1.094 0 .196-2.228 1.956-4.952 3.913-3.738 2.686-5.189 4.485-5.922 7.344-1.654 6.446-5.354 59.156-4.933 70.263.532 14.012 2.613 18.877 9.586 22.411 10.608 5.376 24.631 5.506 32.355.301 5.276-3.556 7.059-7.679 7.627-17.631.732-12.834-.201-17.433-4.504-22.195-3.363-3.723-3.862-3.941-7.677-3.362l-4.08.62 5.25-2.514c2.888-1.383 5.25-2.935 5.25-3.447 0-.513-2.137-1.311-4.75-1.774l-4.75-.841 6.922-.522c6.754-.51 10.144-2.521 5.386-3.196-1.27-.18 4.892-.288 13.692-.241l16 .085 17.803 6.162c9.791 3.389 20.366 6.408 23.5 6.709l5.697.547-6.128-2.927c-3.37-1.61-6.346-3.543-6.612-4.295-.267-.752.161-2.646.951-4.21.79-1.564 1.291-2.955 1.113-3.092-.178-.136-3.024-2.207-6.324-4.602-3.3-2.394-8.591-6.499-11.758-9.122-8.554-7.083-13.798-8.287-45.242-10.382-8.733-.582-17.5-2.798-17.5-4.423 0-1.329 7.828-2.882 25.581-5.076 9.282-1.147 16.933-2.169 17.001-2.273.068-.103.652-1.087 1.297-2.187 1.107-1.884 1.159-1.856.897.5-.218 1.965.686 3.198 4.223 5.758 2.476 1.792 6.471 4.013 8.879 4.935 4.186 1.603 4.439 1.594 5.75-.199 1.546-2.114 1.884-.318.446 2.369-1.38 2.578 1.275 7.231 7.467 13.087 8.112 7.673 8.94 7.225 10.384-5.61l1.2-10.661-2.925-4.089c-3.392-4.744-20.693-20.535-30.322-27.678-8.441-6.261-9.826-6.296-29.224-.733-3.765 1.079-7.075 1.734-7.355 1.454-.28-.28 4.151-1.92 9.846-3.643 14.289-4.324 15.455-4.832 16.76-7.311l1.147-2.179-.432 2.25c-.282 1.464.054 2.25.962 2.25 2.874 0 19.14 9.996 24.918 15.313 14.345 13.2 15.296 13.92 15.838 11.987.278-.99.805-5.732 1.172-10.538.599-7.846.45-9.09-1.46-12.18-1.169-1.893-3.685-4.811-5.59-6.483-3.652-3.206-28.628-18.316-36.719-22.214l-4.76-2.293-5.74 2.787c-5.86 2.844-25.125 13.307-30.991 16.832-6.778 4.072-2.868.585 6-5.351 5.088-3.405 9.581-6.679 9.985-7.276.912-1.346.974-10.296.126-18.4-.565-5.407-.938-6.22-3.25-7.068-2.51-.921-2.471-.961 1.019-1.037 3.063-.067 4.233-.811 7.5-4.767 7.821-9.473 8.312-10.47 6.511-13.22l-1.597-2.437 2.487 1.63c2.276 1.491 3.125 1.498 9.978.088 10.575-2.175 18.109-5.378 19.108-8.123.792-2.178.622-2.25-5.32-2.25-4.097 0-6.7-.507-7.824-1.524-.951-.861-4.465-1.765-8.078-2.078l-6.395-.554-12 7.371M80.5 26c2.809 1.207 11.5 1.207 11.5 0 0-.575-2.87-.97-6.75-.93-4.698.049-6.142.332-4.75.93M219 44.5c0 1.259 2.167 1.5 13.5 1.5s13.5-.241 13.5-1.5-2.167-1.5-13.5-1.5-13.5.241-13.5 1.5M63.171 48.097c-1.492 2.391-.973 3.425 1.286 2.558 1.54-.591 2.224-4.655.784-4.655-.418 0-1.349.944-2.07 2.097M213 50c0 .631 6.833 1 18.5 1s18.5-.369 18.5-1-6.833-1-18.5-1-18.5.369-18.5 1M57.453 55.166c-4.468 5.093-4.426 4.884-3.157 15.576L55.5 80.89l2.283-1.724c2.189-1.654 2.271-2.224 2-14.029L59.5 52.833l-2.047 2.333m6.22-1.506c-.69.691-.976 22.34-.295 22.34.208 0 2.101-.72 4.206-1.6l3.829-1.599 9.772 5.099 9.773 5.1h47.297l-3.903 4.25c-8.678 9.451-12.487 19.078-12.563 31.75-.148 24.952 17.761 44.759 42.979 47.536 7.572.834 18.553-1.524 26.278-5.641 7.02-3.742 16.637-13.543 19.898-20.279 8.74-18.056 5.81-38.938-7.465-53.193L199.36 83h7.693l-.276-14.75-.277-14.75-71.077-.257c-39.092-.141-71.379.047-71.75.417M216 67.977V83h37.053l-.276-14.75-.277-14.75-18.25-.273-18.25-.272v15.022m-77.588-10.608c-.289.753-.388 3.791-.219 6.75l.307 5.381 30.25.265 30.25.264V56h-30.031c-24.497 0-30.129.252-30.557 1.369m17.075 20.43c-19.516 6.748-31.717 24.806-30.201 44.701 1.662 21.815 18.432 38.542 40.323 40.222C191.064 164.675 212 144.947 212 119.007c0-24.5-18.962-43.081-43.855-42.974-4.577.019-9.657.728-12.658 1.766m1.827 6.999c-7.273 2.596-12.618 6.381-17.202 12.179-12.936 16.366-9.143 40.621 8.192 52.378 18.329 12.431 42.628 6.1 53.037-13.818 2.926-5.6 3.155-6.762 3.157-16.037.002-8.188-.396-10.861-2.192-14.751-3.104-6.721-11.499-15.217-18.194-18.414-7.485-3.574-19.208-4.246-26.798-1.537M160 86.545c-9.622 2.681-16.964 8.743-21.746 17.955-3.721 7.168-4.285 18.781-1.297 26.702 2.672 7.084 9.176 14.448 16.195 18.336 4.927 2.729 6.135 2.962 15.348 2.962 8.588 0 10.702-.346 14.974-2.448 6.682-3.288 13.115-9.929 16.328-16.856 3.747-8.079 3.761-19.282.035-27.316-7.232-15.589-24.026-23.74-39.837-19.335m6.762 13.162c1.244.239 3.044.23 4-.02s-.062-.446-2.262-.435c-2.2.011-2.982.216-1.738.455m-7.321 1.848c-1.91 1.53-1.909 1.541.059.635 1.1-.506 2.675-1.17 3.5-1.476 1.296-.48 1.288-.567-.059-.635-.857-.043-2.432.621-3.5 1.476m19.792 1.548c1.504 1.122 3.903 3.47 5.331 5.218 1.429 1.749 2.129 2.228 1.555 1.066-1.1-2.229-7.686-8.409-8.904-8.355-.393.017.515.949 2.018 2.071m-24.91 2.147c-1.114 1.237-2.383 2.925-2.821 3.75-.844 1.591-.614 1.374 3.437-3.25 1.325-1.513 2.185-2.75 1.91-2.75-.275 0-1.412 1.013-2.526 2.25m8.433 4.505c-4.267 2.645-6.243 7.675-4.847 12.335 1.993 6.654 8.211 10.016 14.615 7.902 8.722-2.878 10.109-15.197 2.251-19.988-3.988-2.431-8.354-2.522-12.019-.249m-13.132 2.784c-.343.893-.595 2.15-.561 2.793.035.642.495.09 1.022-1.227.527-1.318.779-2.574.56-2.793-.219-.219-.679.333-1.021 1.227M188.272 119c0 2.475.195 3.487.434 2.25.238-1.237.238-3.263 0-4.5-.239-1.237-.434-.225-.434 2.25m-39.193 4.583c.048 1.165.285 1.402.604.605.289-.722.253-1.585-.079-1.917-.332-.332-.568.258-.525 1.312m37.424 3.407c-.374 1.178-2.086 3.799-3.804 5.826-2.933 3.457-2.952 3.53-.317 1.184 2.931-2.609 6.116-7.835 5.283-8.668-.265-.266-.788.481-1.162 1.658m-36.494-.608c-.04 3.74 9.828 12.618 14.025 12.618.747 0-.978-1.164-3.833-2.587-3.625-1.807-5.944-3.843-7.687-6.75-1.372-2.29-2.499-3.766-2.505-3.281M177 137c-.901.582-1.025.975-.309.985.655.008 1.469-.435 1.809-.985.767-1.242.421-1.242-1.5 0m-159.301 4.131c-1.984 3.128-3.321 9.371-1.806 8.435.609-.376 1.107-1.457 1.107-2.403 0-.945.739-2.773 1.642-4.063 1.469-2.096 2.177-2.282 6.674-1.749 3.621.429 4.726.291 3.944-.491-.597-.597-3.105-1.314-5.572-1.592-3.919-.441-4.676-.206-5.989 1.863m150.114-1.448c.721.289 1.584.253 1.916-.079.332-.332-.258-.568-1.312-.525-1.165.048-1.402.285-.604.604M19.695 158.784c-1.704 1.884-7.012 13.232-6.451 13.794.181.18 2.136-2.688 4.345-6.375 3.762-6.279 4.265-6.723 7.963-7.02 6.074-.487 6.697-2.183.803-2.183-3.571 0-5.517.521-6.66 1.784M122.5 170.469l3 2.459 63.75.036L253 173v-5l-66.75.005-66.75.005 3 2.459m-5.46 2.983c-2.112 2.545-.687 4.978 4.313 7.365 8.713 4.161 10.578.476 2.645-5.223-5.769-4.145-5.392-4.029-6.958-2.142m-60.54 2.132c-2.2 1.483-4.35 3.005-4.777 3.383-.428.378 1.26 3.725 3.75 7.438 4.039 6.023 5.283 8.595 4.16 8.595-.202 0-1.586-1.841-3.075-4.092-1.489-2.25-2.924-3.875-3.189-3.61-.265.264.239 3.262 1.12 6.66.881 3.399 1.694 9.747 1.806 14.106.113 4.36.491 7.929.841 7.931 2.351.018 14.056-9.491 18.95-15.394 5.22-6.295 13.669-20.241 12.757-21.054-.189-.169-2.593-1.432-5.343-2.808-3.675-1.839-7.385-2.68-14-3.176-8.658-.65-9.152-.573-13 2.021"/><path fill="#212121" fill-opacity=".79" fill-rule="evenodd" d="M59 23.641c-22.628 13.52-29.997 18.694-32.075 22.522-.496.915-1.807 10.59-2.913 21.5-3.519 34.734-3.205 33.481-10.086 40.172L8 113.598v6.763c0 3.72-.653 8.873-1.451 11.451-.827 2.672-2.512 18.88-3.917 37.688-2.578 34.506-2.454 41.175.932 50.222 3.168 8.465 13.415 13.584 27.436 13.705 7.383.063 9.254-.297 14.232-2.742 4.099-2.013 6.403-3.94 8.089-6.767 1.621-2.718 4.01-4.777 7.645-6.588 10.349-5.158 24.444-21.129 29.559-33.495l1.862-4.502 12.056 3.942c6.631 2.168 14.568 4.174 17.637 4.457 5.234.483 5.721.336 7.845-2.359 1.745-2.213 2.151-3.735 1.765-6.623l-.5-3.75H255v-62c0-56.063-.153-62-1.594-62-.876 0-1.829-.9-2.116-2-.288-1.1-1.146-2-1.907-2-.842 0-1.383-1.075-1.383-2.75V41.5h-31v2.75c0 2.389-.394 2.75-3 2.75-2.333 0-3 .444-3 2 0 1.333-.667 2-2 2-1.778 0-2-.667-2-6v-6h-48.052l-14.284 6.032-14.284 6.033-12.44-.283c-12.041-.273-12.45-.354-12.76-2.532-.318-2.245-.361-2.25-19.75-2.25H66v2.5c0 1.833-.533 2.5-2 2.5-1.1 0-2-.35-2-.777 0-1.135 3.043-5.521 4.837-6.973 1.994-1.613 5.163-1.613 5.163 0 0 .951 3.414 1.204 14.25 1.058 10.971-.148 14.25-.494 14.25-1.5 0-.97-2.977-1.451-11.5-1.859-11.291-.54-11.355-.556-3.5-.891 6.664-.285 7.332-.452 4-1.005l-4-.662 4.18-1.776C94.095 34.739 96 31.5 96 25.87c0-3.513-.297-3.583-18.5-4.337-13.888-.576-14.036-.559-18.5 2.108m-9.944 9.264c-21.212 13.25-19.947 11.402-22.083 32.238-.979 9.546-2.353 22.05-3.053 27.787l-1.273 10.43-5.824 5.467c-5.811 5.457-5.823 5.48-5.823 11.32 0 6.281.086 6.412 3.151 4.772 3.537-1.893 3.096-.234-.535 2.009-2.084 1.288-3.906 3.448-4.525 5.364-1.599 4.951-6.356 68.362-5.625 74.98.756 6.835 2.915 13.371 5.31 16.073 5.296 5.973 21.428 9.191 31.457 6.276C50.968 226.5 54.315 220.438 54.378 204c.042-11.12 1.324-7.497 1.504 4.25.078 5.154.507 7.75 1.28 7.75 2.521 0 11.182-6.567 16.966-12.865C80.035 196.704 89 182.896 89 180.229c0-.722-2.967-2.644-6.593-4.271-5.526-2.479-7.885-2.958-14.57-2.958-7.255 0-8.377.276-12.407 3.048-2.436 1.676-4.43 3.389-4.43 3.806 0 .416 1.159 2.307 2.575 4.202 1.417 1.894 3.254 4.794 4.082 6.444l1.506 3-2.545-3c-1.401-1.65-2.562-3.338-2.582-3.75-.02-.412-.516-.75-1.103-.75-.649 0-.792.882-.363 2.25 1.537 4.907 1.471 5.112-.503 1.562-2.336-4.199-5.579-6.798-8.54-6.842-2.02-.031-2.02-.035-.027-1.14 1.1-.611 2.83-1.831 3.845-2.711 1.778-1.543 1.76-1.626-.5-2.261-2.052-.576-1.947-.671.848-.758 1.895-.059 3.725-.858 4.5-1.965 1.116-1.592 3.064-1.935 13.307-2.345l12-.479 17.042 5.811c9.374 3.196 20.114 6.523 23.867 7.393 6.351 1.473 6.956 1.464 8.708-.121 3.237-2.93 2.308-5.593-3.212-9.203-5.442-3.559-7.781-3.215-8.021 1.181-.098 1.797-.189 1.844-.588.304-.259-1.004.245-2.616 1.12-3.583 1.487-1.643.922-2.281-8.561-9.676-5.584-4.354-11.098-8.632-12.254-9.506-1.155-.874-4.126-2.383-6.601-3.354-4.29-1.682-8.502-2.224-35.079-4.513-6.368-.548-13.118-1.647-15-2.443l-3.421-1.446 3-1.149c3.275-1.255 29.749-4.953 35.693-4.986 2.66-.014 4.155-.65 5.343-2.27 1.616-2.205 1.637-2.207 1.023-.105-.523 1.788.374 2.812 5.4 6.168 6.18 4.128 11.122 5.873 13.124 4.636.776-.48.916-.023.447 1.456-1.382 4.354 9.13 17.222 14.908 18.25 2.275.405 3.054-2.31 4.131-14.41.688-7.727.678-7.771-2.689-12.063-5.535-7.053-29.536-27.901-35.926-31.206-2.739-1.416-2.458-1.453-22.954 2.959-1.375.296 1.1-.587 5.5-1.962 4.4-1.376 9.237-3.149 10.75-3.941 1.513-.791 2.75-1.01 2.75-.485 0 .524.885.953 1.966.953 2.476 0 21.712 10.718 22.385 12.474.594 1.547 17.601 15.908 18.167 15.341.216-.215.699-5.152 1.075-10.971l.685-10.58-3.187-4.632c-3.541-5.147-7.488-7.883-29.95-20.761l-15.359-8.807-3.641 1.514C64.829 78.954 42.024 91.214 36 94.856c-5.028 3.039-.289-.724 7.187-5.708 7.183-4.788 7.728-5.403 8.308-9.386.342-2.344.033-7.991-.686-12.549L49.5 58.926l5.774-6.059c7.345-7.707 9.358-11.363 7.539-13.689-1.179-1.506-1.133-1.537.442-.301 2.149 1.685 6.941 1.055 18.438-2.426C89.901 33.966 93 32.055 93 29.481c0-.947-1.638-1.491-5.25-1.744l-5.25-.367 5.25-.185c5.632-.198 7.42-2.171 2-2.206-1.787-.012-8.425-.263-14.75-.559l-11.5-.538-14.444 9.023M218.642 43.77c-.28.454-.167 1.38.252 2.058.557.901 4.37 1.157 14.184.952 11.139-.232 13.422-.535 13.422-1.78 0-1.247-2.309-1.547-13.674-1.778-7.52-.152-13.903.094-14.184.548M213 49.5c0 1.279 2.722 1.5 18.5 1.5s18.5-.221 18.5-1.5-2.722-1.5-18.5-1.5-18.5.221-18.5 1.5M56.252 55.954l-3.249 3.786.651 10.63c.357 5.846.829 10.63 1.048 10.63.218 0 1.725-.687 3.348-1.526L61 77.949V64.974c0-7.136-.337-12.936-.75-12.889-.413.046-2.212 1.788-3.998 3.869M63 65.026v12.025l2.95-1.525c4.492-2.323 6.676-1.91 15.708 2.974l8.323 4.5h47.701l-4.287 4.67c-5.052 5.502-9.751 14.71-11.293 22.129-5.128 24.663 10.539 49.184 35.591 55.709 21.421 5.58 44.196-5.432 54.02-26.119 3.273-6.891 3.762-8.921 4.119-17.102.623-14.236-2.872-24.667-11.47-34.229L199.815 83H207V53H63v12.026M215 68v15h38V53h-38v15m-76-5v6h60V57h-60v6m19 14.36c-21.406 5.828-35.648 27.427-32.016 48.555 1.609 9.357 5.073 16.245 11.624 23.112 13.35 13.997 32.142 17.426 49.917 9.108 22.901-10.717 31.281-39.019 18.175-61.384-3.143-5.363-11.077-12.882-16.527-15.663-9.352-4.771-21.852-6.266-31.173-3.728m-2.698 7.686c-5.84 2.309-14.332 9.458-17.846 15.023-11.565 18.321-3.814 43.309 16.369 52.771 4.897 2.295 6.978 2.66 15.175 2.66 8.387 0 10.17-.329 15.218-2.808 27.518-13.513 28.44-51.343 1.603-65.725-5.718-3.064-7.228-3.416-15.821-3.682-7.715-.239-10.477.092-14.698 1.761m1 2.998c-7.062 2.795-14.258 9.51-17.799 16.611-2.515 5.043-2.921 7.011-2.959 14.345-.037 7.124.377 9.397 2.557 14.046 3.583 7.639 7.731 12.043 15.114 16.046 5.83 3.161 6.937 3.408 15.285 3.403 7.097-.004 9.989-.461 13.676-2.161 6.306-2.908 13.43-9.664 16.653-15.794 2.35-4.471 2.651-6.169 2.66-15.04.009-8.545-.336-10.699-2.377-14.809-3.079-6.201-9.715-12.802-15.803-15.721-6.927-3.32-19.838-3.763-27.007-.926m4.198 12.469c-12.953 6.966-16.282 21.832-7.204 32.171 6.542 7.452 15.577 9.177 24.575 4.693 7.154-3.565 10.433-8.6 10.903-16.744.694-12.019-7.055-20.721-19.045-21.387-4.374-.243-7.122.134-9.229 1.267m2.137.907c-4.758 1.751-9.433 6.027-11.26 10.298-3.987 9.319.933 21.804 9.938 25.215 5.085 1.927 12.606 1.303 17.273-1.432 5.955-3.49 9.945-11.558 9.04-18.281-1.594-11.845-14.158-19.789-24.991-15.8m-.42 8.141c-10.099 7.073-4.126 22.763 8.044 21.131 10.042-1.347 13.399-13.004 5.742-19.942-3.537-3.205-10.1-3.771-13.786-1.189M18.746 140.25c-.9.688-1.908 2.6-2.241 4.25l-.604 3 1.501-3.25c1.377-2.98 1.901-3.258 6.3-3.35 3.896-.081 4.328-.25 2.298-.9-3.73-1.194-5.44-1.136-7.254.25m2.979 17.444c-1.633.425-8.349 12.016-7.47 12.894.212.212 1.9-2.309 3.752-5.601 2.403-4.272 3.959-5.991 5.43-6.002 1.135-.009 2.738-.452 3.563-.985 1.178-.761.963-.948-1-.869-1.375.056-3.299.309-4.275.563M120 168.784c0 .432 1.307 1.557 2.904 2.5 2.662 1.573 8.214 1.716 66.5 1.716H253v-5h-66.5c-36.575 0-66.5.353-66.5.784m-1.559 11.661c1.068.855 2.38 1.555 2.917 1.555 1.27 0 .703-.462-2.358-1.92-2.357-1.122-2.389-1.102-.559.365"/></svg>